<?xml version="1.0" standalone="no"?>
<!DOCTYPE svg PUBLIC "-//W3C//DTD SVG 20010904//EN"
 "http://www.w3.org/TR/2001/REC-SVG-20010904/DTD/svg10.dtd">
<svg version="1.0" xmlns="http://www.w3.org/2000/svg"
 width="512.000000pt" height="512.000000pt" viewBox="0 0 512.000000 512.000000"
 preserveAspectRatio="xMidYMid meet">
<metadata>
Created by potrace 1.14, written by Peter Selinger 2001-2017
</metadata>
<g transform="translate(0.000000,512.000000) scale(0.100000,-0.100000)"
fill="#000000" stroke="none">
<path d="M3330 5105 c-43 -20 -68 -42 -87 -78 -8 -16 -83 -270 -168 -565 -85
-295 -161 -555 -170 -577 -53 -130 -290 -591 -323 -627 -39 -44 -40 -44 -347
-178 -104 -46 -212 -93 -240 -105 -27 -13 -140 -62 -250 -110 -232 -101 -335
-146 -423 -186 -34 -16 -120 -47 -190 -70 -180 -59 -324 -131 -384 -191 -113
-115 -141 -243 -94 -441 36 -152 52 -177 116 -177 43 0 46 -5 45 -74 l-1 -49
-258 -143 c-142 -78 -269 -153 -283 -166 -82 -75 -66 -233 42 -418 50 -85 154
-198 206 -226 19 -9 52 -17 74 -17 80 0 106 23 256 217 77 100 148 190 157
201 9 11 35 44 57 73 21 28 42 52 45 52 3 0 25 -25 50 -55 31 -38 57 -59 82
-67 l37 -11 -49 -55 c-241 -270 -196 -714 93 -929 118 -88 223 -124 372 -129
116 -4 198 14 303 66 100 50 219 160 269 250 134 238 109 520 -67 737 l-48 60
52 -3 c38 -2 67 -12 110 -38 32 -19 79 -38 103 -42 70 -10 88 9 140 151 24 66
50 134 58 152 l14 32 248 1 c272 1 292 -3 412 -66 59 -32 92 -62 125 -113 17
-27 38 -44 84 -68 2 -1 -20 -30 -49 -65 -161 -193 -196 -452 -94 -684 152
-343 589 -477 915 -279 117 71 210 183 263 315 33 83 37 106 41 210 6 159 -42
303 -143 428 -28 34 -51 64 -51 66 0 3 10 3 22 1 25 -5 63 16 77 43 9 17 33
180 46 307 7 73 17 156 20 174 2 9 4 28 4 43 1 23 6 28 39 34 56 9 107 47 131
96 20 42 21 60 21 305 0 257 0 262 26 329 27 70 83 237 89 264 2 8 10 42 18
75 8 33 18 80 22 105 4 25 9 54 12 65 8 36 10 278 2 325 -4 25 -10 75 -13 112
-4 37 -10 77 -13 90 -3 13 -8 218 -10 457 -4 497 3 459 -102 559 -281 269
-643 465 -1023 557 -242 58 -366 73 -418 50z m123 -165 c23 -5 94 -19 157 -31
152 -28 152 -29 145 -87 -55 -430 -130 -749 -225 -948 -43 -89 -108 -162 -206
-230 l-59 -42 -45 44 c-25 24 -74 58 -110 76 -36 17 -67 33 -69 34 -2 2 8 32
22 67 21 52 86 261 102 327 2 8 29 103 60 210 31 107 58 202 60 210 2 8 20 71
40 140 20 69 38 130 39 135 21 79 30 105 38 105 5 0 28 -4 51 -10z m552 -149
c225 -91 452 -236 623 -398 l72 -68 4 -415 c2 -228 6 -428 9 -445 5 -29 9 -62
26 -219 9 -84 5 -207 -9 -301 -16 -98 -77 -314 -118 -415 -25 -61 -36 -108
-41 -165 l-6 -79 -165 -54 c-167 -54 -317 -96 -380 -106 -131 -20 -352 -50
-463 -62 -77 -9 -88 -9 -157 1 -93 13 -312 12 -434 -2 -127 -14 -268 -45 -420
-92 -99 -31 -120 -36 -186 -47 -19 -3 -46 -7 -60 -9 -142 -24 -602 -24 -866
-1 -143 13 -249 25 -379 42 -60 7 -135 14 -166 14 l-56 0 -15 54 c-30 110 -12
209 50 272 40 39 169 101 316 149 72 24 195 72 272 106 78 34 148 59 156 56
14 -5 56 -82 78 -144 22 -60 101 -75 140 -25 34 43 21 123 -34 210 l-25 40
115 51 c63 28 120 51 127 50 20 -1 68 -66 93 -127 30 -75 61 -99 111 -86 28 7
42 17 55 42 15 31 15 38 1 85 -16 55 -44 108 -75 143 -19 21 -18 21 99 73 65
28 123 51 128 51 17 0 53 -65 71 -126 9 -32 26 -66 38 -76 32 -26 82 -23 113
8 23 23 25 31 20 82 -4 36 -19 82 -41 125 l-35 68 87 41 c139 64 127 63 165
17 19 -22 49 -67 66 -99 18 -33 41 -64 51 -70 47 -25 109 0 125 51 8 25 -18
102 -51 146 -13 17 -24 34 -24 38 0 3 -9 15 -20 27 -21 23 -26 38 -11 38 5 0
61 29 125 65 64 36 117 65 119 65 2 0 21 -35 42 -77 50 -103 69 -123 116 -123
29 0 43 7 63 31 32 38 30 54 -30 174 -40 80 -43 91 -28 100 46 28 176 140 208
178 102 125 199 390 266 727 30 153 29 149 35 204 3 28 8 58 10 66 4 15 17
133 18 158 0 16 2 16 82 -17z m-941 -1238 c64 -45 71 -37 -118 -139 -55 -30
-101 -54 -103 -54 -1 0 23 52 55 116 l57 116 35 -6 c19 -3 52 -18 74 -33z
m1504 -1559 l-3 -107 -48 -12 c-86 -22 -130 -85 -142 -208 -3 -37 -8 -76 -10
-85 -1 -9 -8 -66 -15 -127 -6 -60 -13 -119 -15 -130 -2 -11 -4 -25 -4 -30 -1
-7 -133 -10 -383 -9 -211 1 -386 2 -390 3 -5 0 -8 136 -8 301 0 279 1 300 18
301 9 0 24 2 33 4 8 1 40 6 70 9 30 4 65 8 79 11 14 2 48 7 75 10 203 23 429
75 640 148 112 39 106 44 103 -79z m-1240 -95 l52 -3 0 -223 0 -223 -47 24
c-119 60 -168 67 -428 68 -239 0 -297 -3 -367 -24 -41 -12 -45 -18 -98 -158
-18 -47 -36 -95 -41 -107 l-8 -22 -48 27 -48 27 -494 1 -494 0 -26 30 c-14 16
-87 100 -161 185 l-136 156 1 64 1 64 29 -2 c43 -2 156 -13 185 -19 14 -2 60
-6 102 -10 43 -3 87 -7 97 -9 51 -10 289 -19 491 -19 357 -1 493 15 721 84
182 55 286 75 449 86 47 4 86 7 87 8 3 2 100 -1 181 -5z m-2338 -511 c0 -5
-204 -274 -220 -288 -3 -3 -38 -49 -79 -102 -40 -54 -79 -102 -85 -107 -29
-24 -148 129 -191 244 -41 107 -45 101 118 190 210 116 217 120 282 158 l60
35 57 -61 c32 -34 58 -65 58 -69z m860 -298 c108 -32 193 -97 261 -199 81
-123 92 -302 27 -441 -43 -90 -89 -145 -164 -195 -317 -210 -739 22 -729 400
6 227 166 411 390 449 84 15 129 12 215 -14z m2287 -25 c297 -141 360 -533
122 -760 -184 -176 -472 -174 -649 4 -101 101 -141 198 -141 342 1 226 178
428 401 456 25 3 46 6 47 7 2 1 35 -1 74 -5 50 -6 95 -19 146 -44z"/>
<path d="M4046 4425 c-55 -51 -19 -145 57 -145 23 0 41 8 59 28 73 77 -38 190
-116 117z"/>
<path d="M3962 4000 c-13 -10 -26 -35 -29 -54 -5 -30 -1 -40 25 -66 32 -32 60
-37 95 -18 33 17 46 39 47 76 0 69 -84 107 -138 62z"/>
<path d="M3820 3586 c-60 -19 -78 -85 -36 -132 63 -75 182 10 136 97 -18 33
-60 48 -100 35z"/>
<path d="M4487 3323 c-34 -22 -35 -25 -42 -160 -3 -62 -7 -125 -9 -140 -2 -15
-7 -53 -11 -83 -3 -30 -11 -73 -17 -95 -5 -22 -12 -51 -15 -64 -8 -48 -45
-120 -69 -136 -62 -40 -61 -125 2 -151 20 -8 45 -12 61 -8 79 20 170 189 199
368 3 21 8 48 10 60 9 46 18 176 18 273 1 90 -2 105 -19 122 -29 29 -74 35
-108 14z"/>
<path d="M4046 2454 c-35 -36 -34 -77 3 -115 34 -33 50 -35 96 -13 78 36 48
154 -38 154 -24 0 -42 -8 -61 -26z"/>
<path d="M1619 927 c-130 -49 -201 -147 -202 -282 -3 -312 420 -415 560 -135
28 56 32 72 30 139 -3 120 -61 212 -166 263 -56 27 -168 35 -222 15z m152
-172 c118 -61 71 -239 -63 -237 -80 1 -138 79 -117 155 23 83 105 120 180 82z"/>
<path d="M3839 926 c-140 -50 -223 -194 -194 -337 27 -138 135 -234 274 -242
134 -9 267 82 303 207 57 197 -87 387 -291 386 -31 -1 -72 -7 -92 -14z m155
-171 c63 -30 89 -121 51 -178 -57 -87 -198 -73 -226 23 -34 114 69 205 175
155z"/>
</g>
</svg>
